Coordinates
version=1
nRows=21
nColumns=24
inDegrees=yes

Units are S.I. units (second, meters, Newtons, ...)
If the header above contains a line with 'inDegrees', this indicates whether rotational values are in degrees (yes) or radians (no).

endheader
time	pelvis_tilt	pelvis_list	pelvis_rotation	pelvis_tx	pelvis_ty	pelvis_tz	hip_flexion_r	hip_adduction_r	hip_rotation_r	knee_angle_r	ankle_angle_r	subtalar_angle_r	mtp_angle_r	hip_flexion_l	hip_adduction_l	hip_rotation_l	knee_angle_l	ankle_angle_l	subtalar_angle_l	mtp_angle_l	lumbar_extension	lumbar_bending	lumbar_rotation
1.5	5.396099622313534	1.1997243840015124	-0.689673379467123	0.6034277437309873	1.0221520680251297	0.009520623355683482	11.116089057059021	-4.894314756776325	-4.984161434413261	-43.35307082072039	-3.5576289060978845	-5.069851337872123e-06	-6.503323871093438e-11	-3.1999818007587244	2.2120459182681533	-0.3301296609867155	-27.06367833500837	5.196700317670057	1.0198643508635594e-06	1.2604504898657391e-16	-14.563933593170917	-2.6592511236342107	-4.318417409923935
1.517	6.945463951464776	-3.4647623968215853	-6.315485062870107	0.6119794332167241	1.0378832350314495	-0.012712765242143298	4.628249834290283	-8.782374351695758	-6.450888490570877	-122.24028630948109	-8.249153749859738	-8.083077610889104e-06	-8.569048341107061e-10	9.88239214376242	1.907198551193476	-2.632040357618703	0.6945804452688638	-2.579937880014855	4.7443713373900933e-07	-1.6312585125650695e-15	-14.989905328487886	-4.819097063192846	-1.3793785781240013
1.533	6.270844583313121	-2.3082292833765337	-2.790253806357248	0.5931529556276732	1.051702519277241	0.023375456231208565	-3.9765594081284856	-1.6296569256366293	-4.408127002896984	-58.6974843626864	5.685323896643856	-6.2148591677199604e-06	8.612532068667192e-10	19.23937566001673	-1.859386336051359	-8.554661097711975	-19.23354212861003	-2.3360792790021794	-4.246872172611929e-06	-4.907701832867791e-16	-16.938816392954507	-0.75684340462518	0.7737090626280723
1.55	6.100813381713028	-1.2764365395706192	-1.9945059952091313	0.598601149192807	1.0530819873676416	0.0069522606204014	7.919206832657085	-4.306014824257954	-5.771442949457001	-76.98511923868878	1.963693193758565	-6.577970817722607e-06	-3.388696825359154e-10	11.361431685545192	0.5033495632036291	-5.505741929873931	-23.13708844764669	-0.10758943997974146	-3.770449332190177e-06	-1.0869342847556836e-15	-15.912546841579875	-2.3602744742878086	-2.322901469085364
1.567	5.624514521300361	-0.5471897914495235	0.7001334362886977	0.5966178561280177	1.0253575442693244	-0.009329165806027908	20.165513908065222	-4.896396666834669	-3.156079210520012	-58.94066838390445	3.883400336218161	-8.590843302041337e-06	-4.433524454716538e-10	-13.239903950238931	3.119690735447987	4.486200422269858	-6.93541967141133	7.083475037831155	3.554248649396951e-06	1.1020514077716947e-15	-14.98055878985691	-0.6680488034625731	-8.6582836766797
1.583	5.0705997047486155	-2.6837633879982277	-0.25366023974727575	0.5782969770446535	1.0408237433745873	0.010084720716987993	6.987372883315208	1.1343740894314607	-5.387668725674411	-27.7996480008972	11.118102943781116	-7.252420153524715e-07	6.800801450829177e-10	3.4552161603102327	-0.813812051144817	-0.18115598078279643	-10.156478865528637	3.5767468771855815	-9.74399367100486e-07	-7.875126303360443e-16	-16.69610532156969	0.9163665775997845	-3.16252796834914
1.6	5.716808385533228	-5.805703783886959	-6.565307241504167	0.5899105330485963	1.0441337376835873	0.038412493067862374	-22.923710933637825	1.840594766704554	1.5390643510606994	-63.91505648852868	9.590198403272423	-8.754047979704821e-07	-4.0816141815200994e-10	34.62140444575781	-5.9539132697847315	-8.233009677620604	-8.31478779738476	-5.3263000968876835	-5.767902306432229e-06	-1.0883108332601844e-15	-17.211287166606667	0.28115810145446707	6.734152561525822
1.617	6.049665683605313	0.5602091447814834	-1.120308517919407	0.5987823470197358	1.0273267902397971	-0.012790507301060669	16.589199171446985	-6.988528489699596	-6.524488929251566	-62.71205321921616	-6.442471611160238	-1.3855482324050877e-06	4.5878303319153086e-10	-7.104097469086575	3.984999800752706	1.6710790066368912	-14.228403095813377	6.042591514226542	-3.521232619693561e-07	1.5695173387249422e-15	-15.410550020347292	-4.84474867218674	-6.34379571354184
1.633	5.158423248881601	-6.025847909707453	-1.3671354117453434	0.5824331670882945	1.0480308052079663	0.028921241039877206	-1.9534965176288637	3.7987264523715414	-4.151176011219773	-52.184605591219906	10.38532882758283	-4.761459365681101e-06	-4.5780738164138137e-10	16.65493646312892	-6.041605693557581	-5.2002928477002035	-6.2834872523186815	-0.7747768966891302	-2.091392000033363e-06	-1.0447277868207639e-16	-16.762170002029784	4.751055520309504	1.003928220502166
1.65	5.119607072029762	1.155677085943765	0.19577806985455906	0.5742050877964189	1.0402171643750695	-0.031617870857009275	31.961480393358087	-7.867939461850446	-12.618259691580128	-41.881239003286986	-2.682309846903914	-5.6266206171679245e-06	5.638847897404329e-10	-18.784266420105293	6.455639271725341	2.921178080289237	1.3746082187586737	13.82290476211298	-2.161149060445134e-06	-1.5828897024726875e-15	-16.051444989843805	-4.675001166916159	-8.735832264856374
1.667	6.084801426582596	0.3683949672394031	2.186146462631444	0.5793645763608554	1.0460930179512722	-0.03663042153778303	39.5209695100226	-7.919912987300123	-13.319170012546747	-54.973450426315985	-1.8121893863857523	-1.0165775685503939e-05	9.490243667865079e-10	-25.579302800497434	6.608313999656399	5.583546922857739	5.100916906145817	13.871491153682362	3.0616692985762163e-06	-6.095812585139258e-17	-16.36405866219887	-2.1445493195874166	-11.438462152699184
1.683	6.18274012418328	1.1186276596312559	-1.7311975543994016	0.5760174947010565	1.0560595359528064	-0.04652624885089107	34.427207347421344	-12.1360888960903	-16.979914222283128	-74.19302398620721	-9.775174909807234	-9.747360756568824e-06	1.9568330252332201e-10	-16.407133777325193	8.348187053163688	-0.9110088810476813	15.451735077285507	13.808344234878534	-5.166530731244043e-06	-2.1194908025492296e-15	-16.645762119513545	-7.486058760792994	-8.262149775454937
1.7	4.768950847078305	0.9190069011704184	3.1436513827499546	0.5779038662693134	1.0151626393635378	-0.03987323489653	43.46480509487235	-7.397908619021095	-13.734285481694567	-31.323744016187458	-5.498574877461339	-9.086233068182855e-06	-3.046572023960207e-10	-40.17149975680796	6.876845594647801	8.910588563995951	14.923086483432169	18.114976939499837	5.396443701817941e-06	-6.175013559684054e-16	-14.75729872476928	-1.510200744584803	-13.850297372815755
1.717	3.8535812691104576	4.675765604213505	6.503589504494663	0.5647514298437781	1.0179228391625788	-0.03317758536209152	48.95130286385317	-5.641025858257937	-13.992846587758685	19.3377067114799	0.32347659113416105	-3.5088821506440667e-06	-4.742354469733225e-10	-45.08424680667096	8.051414109701165	10.338904733756406	-10.695796980528659	24.046083353347026	5.429403123921242e-07	2.9751590123816832e-18	-15.460247907159028	-2.765749694572893	-16.035085900248927
1.733	5.170271010514109	-1.0364894848436559	-0.8439021563598607	0.5828207375292869	1.0437714042342345	-0.015321736971241376	20.497308903913616	-4.626632727936755	-12.05438463967714	-49.50859605899985	0.32338300756817495	-4.631742152534735e-06	7.161824406100287e-11	-6.6807174854104385	3.082422960160416	-0.6548154764404699	-3.673730601781997	6.63558229941389	-2.0438454556881055e-06	-1.0515654675800743e-16	-15.708146237664677	-2.652904373205482	-5.368043521442966
1.75	4.49401465475479	0.8204001969164485	1.7290847269029357	0.5744132681022802	1.0274890697504426	0.012798049645426713	14.565057416882588	0.336859321480512	-7.642750435968019	6.366683031394356	4.153548684943394	-2.2157983791636927e-06	-1.8184245110431923e-10	-9.902913865718489	1.5378811450798628	-2.4602535355969817	-9.44317885575652	8.931745403229094	-7.423480601581368e-07	-7.804148080062985e-16	-16.224554412839524	0.3220703056790626	-4.913727129949362
1.767	4.954518244255339	1.5849321682627364	-2.6486395206481634	0.5790786101010884	1.031475055466679	-4.020990683462587e-05	5.579066002080152	-4.140682222330663	-6.019309420486492	-12.168998358150517	4.636959956082723	1.903628721927237e-06	-6.178016869493154e-10	1.0851106932438022	4.39823152287977	-2.508110543665508	-13.216098961003715	4.968397359016824	-3.7600586713461797e-06	9.570365669800915e-16	-16.31671541821028	-6.010451487234684	-2.377100300705828
1.783	5.395287947454724	5.40305094971592	1.2013605071368179	0.5884741612629499	1.01259974134154	-0.027858406413529192	31.70029870656106	-10.452376591764718	-10.823560742038906	-20.19739893535373	-14.374787844440446	-1.7270363581251895e-06	-4.2152885052264217e-10	-28.953807757665114	9.817875699689921	4.640944019722307	-9.01385681814728	16.06275837487018	1.4807691622065359e-06	1.1458479044533106e-15	-15.091994912152842	-7.650495483769644	-10.89598968146456
1.8	4.3552140541206565	-0.2661823005383517	-4.050169370356874	0.5854572088737541	1.0054547206078315	0.023721550409742664	-11.739900167743826	-0.4149444468745087	2.0806585502636707	-2.6680857586049833	5.472967554278232	5.9000200084792275e-06	6.338879281744562e-10	7.743323589661681	0.07288986515058049	-2.6335796659760464	-8.800420907543764	2.398802228788975	-3.327387145339607e-06	-1.288223724535162e-15	-15.512056568557753	-3.6786061448892347	1.053754780111297
1.817	4.806202556431249	3.5635928183066845	1.0636522593816196	0.5611638727521439	1.0286480927919113	-0.0466404138448427	36.67330774928868	-8.805757607931493	-10.057115558392347	-10.747164313522942	1.7214917154423741	-1.6930581726272436e-06	5.694179734839962e-10	-32.59853076146351	10.214259035479225	4.961091157195937	16.853976687455933	18.995523610378886	-3.816736650688593e-06	4.66369681154754e-16	-16.445648164298625	-7.467224302881342	-12.116384355707877
1.833	5.545203416631008	3.760028635023864	1.262248906304962	0.5817948518327574	1.028896459917995	0.004071974996090778	15.491433543263296	-5.397869850726422	-6.534121150032213	-6.502048938005836	-4.073021194117556	-2.7456786104936253e-06	5.81898329525889e-10	-9.974941071758622	4.989565964671304	-2.920633920881426	-14.107874460904103	10.39539854397948	-1.8125046482302711e-06	2.366766011284823e-16	-16.62585814699519	-3.9858218579470943	-5.800701327877617
